<?xml version="1.0" standalone="no"?>
<!DOCTYPE svg PUBLIC "-//W3C//DTD SVG 20010904//EN"
 "http://www.w3.org/TR/2001/REC-SVG-20010904/DTD/svg10.dtd">
<svg version="1.0" xmlns="http://www.w3.org/2000/svg"
 width="256.000000pt" height="256.000000pt" viewBox="0 0 256.000000 256.000000"
 preserveAspectRatio="xMidYMid meet">

<g transform="translate(0.000000,256.000000) scale(0.100000,-0.100000)"
fill="#000000" stroke="none">
<path d="M948 2398 c-7 -13 -15 -42 -18 -66 l-5 -43 -47 30 -48 31 0 -37 c0
-36 -25 -73 -102 -151 -25 -24 -30 -34 -20 -40 9 -6 2 -16 -28 -36 -46 -30
-50 -41 -17 -50 22 -6 22 -6 -8 -30 -68 -56 -127 -80 -195 -81 -36 0 -82 4
-102 9 -71 16 -40 -12 83 -73 112 -56 119 -61 92 -68 -37 -10 -148 -10 -195 0
-27 6 -38 5 -38 -4 0 -14 104 -118 135 -135 19 -11 19 -12 -9 -35 -43 -35 -68
-48 -94 -49 -19 0 -21 -3 -12 -19 14 -26 74 -45 121 -37 37 6 39 5 29 -13 -5
-11 -15 -23 -20 -26 -6 -4 -27 -39 -46 -78 -49 -98 -78 -134 -114 -142 -39 -8
-38 -20 1 -34 43 -15 68 -14 103 4 15 8 30 15 32 15 2 0 4 -20 4 -44 0 -47
-12 -65 -34 -47 -7 6 -45 12 -84 13 -97 4 -115 -13 -120 -114 -3 -47 -9 -76
-18 -81 -11 -6 -10 -16 1 -55 8 -26 15 -80 15 -120 l0 -74 37 6 c85 13 269 31
427 41 l99 7 -7 -48 c-10 -64 -45 -140 -86 -187 -18 -21 -31 -40 -28 -42 7 -7
85 22 136 50 52 29 53 29 46 10 -13 -33 19 -115 81 -209 36 -54 67 -113 71
-132 3 -19 10 -34 14 -34 9 0 20 35 20 65 0 11 5 27 10 35 8 12 13 11 33 -8
27 -26 34 -27 39 -7 2 11 30 -5 100 -55 54 -38 103 -70 110 -70 7 0 56 31 108
69 67 48 96 64 98 54 2 -8 10 -12 18 -9 8 3 28 -16 54 -53 49 -70 101 -113
176 -148 170 -78 361 -44 493 87 143 141 171 349 72 525 l-31 55 26 0 c76 0
94 45 94 231 0 107 -4 149 -15 174 -21 43 -56 58 -103 46 -20 -5 -57 -11 -82
-13 l-45 -3 -3 39 c-3 34 -1 38 15 32 40 -16 73 -18 107 -6 43 14 46 26 7 35
-16 3 -37 16 -48 28 -18 20 -123 210 -123 222 0 3 15 5 34 5 46 0 95 19 107
41 8 16 6 19 -11 19 -25 0 -55 15 -92 45 l-27 23 54 35 c53 36 105 93 105 116
0 9 -9 10 -32 4 -42 -10 -177 -10 -203 1 -16 6 1 18 98 67 120 60 149 87 80
72 -63 -13 -165 -8 -198 9 -16 9 -52 33 -80 52 -46 33 -48 37 -27 42 30 9 28
19 -13 50 -19 14 -32 30 -30 35 3 4 2 16 -3 26 -5 10 -17 35 -26 56 -9 21 -30
46 -46 55 -24 13 -30 24 -30 50 0 39 -8 40 -57 6 l-38 -26 -6 45 c-8 48 -24
87 -39 87 -4 0 -13 -15 -19 -33 -20 -59 -139 -147 -200 -147 -14 0 -46 -9 -69
-20 l-44 -20 -66 22 c-145 46 -233 106 -247 167 -8 37 -20 39 -37 9z m147
-193 c29 -13 29 -13 -20 -8 -27 3 -54 10 -59 14 -16 14 46 10 79 -6z m-28 -81
c-3 -3 -12 -4 -19 -1 -8 3 -5 6 6 6 11 1 17 -2 13 -5z m-313 -39 c-4 -8 -11
-15 -16 -15 -6 0 -5 -7 2 -15 11 -13 10 -14 -6 -9 -35 13 -37 17 -13 35 29 23
40 24 33 4z m-9 -85 c-26 -29 -105 -76 -140 -85 -36 -8 -37 -9 50 54 38 28 78
51 89 51 18 0 18 -1 1 -20z m-159 -107 l49 -8 -60 -5 -60 -5 40 -22 c56 -31
35 -28 -38 4 -55 25 -58 28 -36 34 34 10 50 10 105 2z m81 -115 c-30 -16 -170
-48 -211 -47 -80 1 -84 16 -6 22 41 3 98 14 125 24 51 19 125 20 92 1z m-194
-85 c47 -20 79 -27 134 -27 48 -1 68 -4 62 -11 -6 -5 -40 -10 -77 -10 -67 1
-130 22 -177 59 -29 23 -13 20 58 -11z m578 -17 c50 -22 52 -24 31 -35 -17 -9
-27 -9 -44 0 -24 13 -47 38 -48 52 0 10 1 10 61 -17z m529 18 c0 -3 -5 -14
-11 -25 -15 -28 -55 -42 -82 -28 -20 11 -18 13 28 35 54 24 65 27 65 18z
m-997 -80 c3 -4 -3 -18 -13 -32 -24 -29 -65 -156 -75 -227 -4 -27 -9 -59 -11
-70 -5 -20 -5 -20 10 -1 26 32 20 -4 -10 -66 l-25 -53 4 110 c8 175 80 379
120 339z m-28 -482 c-20 -20 -32 82 -13 123 12 29 13 27 16 -44 2 -40 0 -76
-3 -79z m813 76 c42 -10 52 -16 52 -33 0 -12 -6 -30 -14 -40 -14 -19 -15 -19
-27 7 -11 25 -13 26 -24 11 -8 -11 -14 -13 -19 -5 -5 9 -12 8 -26 -1 -16 -9
-24 -9 -39 0 -15 10 -21 10 -24 0 -3 -8 -9 -6 -19 7 -14 18 -15 18 -22 -7 -8
-34 -20 -34 -34 -2 -19 41 -15 55 16 55 15 1 41 7 57 15 17 8 39 12 50 10 11
-2 44 -10 73 -17z m-270 -3 c20 -6 22 -12 22 -81 0 -41 -3 -74 -7 -74 -13 0
-51 65 -62 106 -15 55 -14 66 7 60 9 -2 27 -7 40 -11z m452 12 c0 -21 -37
-119 -54 -142 l-21 -30 -6 75 c-3 41 -5 77 -3 79 6 6 84 23 84 18z m-954 -85
c-11 -10 -15 4 -8 28 l7 25 3 -23 c2 -13 1 -26 -2 -30z m-91 28 c3 -5 1 -10
-4 -10 -6 0 -11 5 -11 10 0 6 2 10 4 10 3 0 8 -4 11 -10z m-147 -36 c10 -3 12
-43 10 -176 l-3 -173 -27 -3 c-28 -3 -28 -2 -28 52 0 49 -2 56 -20 56 -18 0
-20 -7 -20 -60 0 -57 -1 -60 -25 -60 -23 0 -25 3 -25 53 0 28 -5 68 -10 87 -7
23 -7 36 0 38 5 2 10 35 10 73 0 68 11 106 34 121 10 7 73 2 104 -8z m2000
-14 c9 -18 12 -66 10 -171 -3 -130 -5 -149 -23 -169 -15 -16 -27 -20 -50 -16
-58 11 -65 32 -65 195 0 136 2 149 21 170 29 31 88 26 107 -9z m-148 -4 c0
-13 -7 -26 -15 -30 -12 -4 -15 -28 -15 -125 0 -104 2 -121 17 -130 10 -5 15
-12 12 -16 -4 -3 -23 4 -43 16 l-36 21 0 113 c0 62 -4 115 -9 117 -4 2 -11 13
-15 25 -6 20 -3 22 36 26 24 2 49 4 56 5 7 1 12 -9 12 -22z m-1721 8 c30 -6
31 -7 31 -65 0 -56 -1 -59 -25 -59 -22 0 -25 4 -25 35 0 40 -24 49 -34 13 -4
-18 5 -33 39 -68 42 -42 45 -50 45 -98 0 -61 -23 -92 -69 -92 -16 0 -36 -3
-45 -6 -14 -5 -16 4 -16 61 0 58 2 66 18 63 10 -2 18 -14 20 -31 4 -31 36 -38
46 -10 5 11 -7 31 -39 63 -43 44 -45 48 -45 105 0 85 21 104 99 89z m101 -89
c0 -47 4 -85 8 -85 22 0 32 29 32 92 0 66 1 68 25 68 25 0 25 -1 25 -83 0 -46
-4 -87 -10 -93 -6 -6 -5 -23 2 -47 9 -29 16 -37 31 -35 17 3 19 12 19 107 0
57 -4 107 -9 110 -5 3 -12 14 -16 24 -7 19 4 21 66 11 27 -5 37 -11 37 -25 0
-11 -4 -19 -10 -19 -6 0 -10 -40 -10 -100 0 -60 4 -100 10 -100 6 0 10 -11 10
-25 0 -23 -3 -25 -50 -25 -41 0 -50 3 -51 18 -1 16 -2 16 -6 -1 -3 -13 -12
-17 -31 -15 -20 2 -28 11 -34 36 -13 50 -38 35 -38 -24 0 -19 -5 -24 -25 -24
l-25 0 0 160 0 160 25 0 c25 0 25 -1 25 -85z m1482 68 c15 -14 18 -32 18 -124
0 -108 0 -108 -22 -100 -21 8 -23 16 -26 92 -3 78 -13 106 -34 93 -4 -3 -8
-43 -8 -88 l0 -83 -25 5 c-25 4 -25 5 -25 106 0 57 3 106 7 109 13 14 96 7
115 -10z m-244 -113 c-3 -96 -4 -103 -25 -111 l-23 -8 0 114 c0 100 2 114 18
118 9 2 21 1 25 -3 4 -4 6 -53 5 -110z m92 15 l0 -105 -25 0 -25 0 0 105 0
105 25 0 25 0 0 -105z m-1040 -30 c5 -106 12 -131 22 -70 2 11 11 21 21 23 14
3 17 -4 17 -32 0 -25 4 -36 15 -36 22 0 22 185 0 207 -23 22 -12 28 44 25 50
-4 70 -23 36 -36 -23 -8 -22 -181 2 -194 9 -6 14 -16 10 -25 -5 -13 -25 -16
-116 -16 l-111 -1 0 141 0 140 28 -3 27 -3 5 -120z m738 64 c-2 -37 -7 -45
-25 -47 -20 -3 -23 1 -23 27 0 34 -23 43 -35 14 -5 -13 6 -29 39 -58 41 -36
46 -45 46 -82 0 -53 -29 -76 -87 -71 -38 3 -38 3 -41 51 -3 42 -1 47 17 47 16
0 21 -6 21 -25 0 -18 5 -25 20 -25 34 0 23 36 -20 70 -34 27 -40 37 -40 68 1
52 26 80 75 84 22 2 44 0 48 -3 5 -3 7 -26 5 -50z m142 36 c0 -18 -5 -25 -20
-25 -19 0 -20 -7 -20 -103 0 -101 -1 -104 -25 -115 l-25 -12 0 115 c0 108 -1
115 -20 115 -15 0 -20 7 -20 25 0 24 2 25 65 25 63 0 65 -1 65 -25z m-540
-115 l0 -130 -24 0 c-21 0 -25 5 -28 38 -3 32 -7 37 -30 40 -24 3 -28 -1 -38
-37 -23 -86 -37 -34 -30 114 1 33 5 64 8 69 9 16 42 -38 42 -71 0 -28 4 -33
25 -33 23 0 25 4 25 45 0 31 -5 47 -15 51 -8 4 -15 15 -15 25 0 15 7 19 40 19
l40 0 0 -130z m91 108 l18 -23 1 23 c0 17 6 22 25 22 l25 0 0 -130 0 -130 -25
0 c-24 0 -25 2 -25 68 -1 60 -14 102 -34 102 -3 0 -6 -38 -6 -85 0 -84 0 -85
-25 -85 l-25 0 0 130 0 130 26 0 c15 0 34 -10 45 -22z m-164 -255 c14 -32 35
-70 45 -85 l19 -28 -44 0 c-38 0 -46 3 -51 23 -7 28 -8 147 0 147 3 0 17 -26
31 -57z m327 -55 l-9 -53 -42 -3 c-46 -3 -51 2 -27 33 8 11 27 47 42 80 l27
59 9 -32 c5 -19 5 -53 0 -84z m-674 8 c0 -28 -18 -81 -25 -74 -3 3 -2 26 1 51
7 49 24 65 24 23z m31 -48 c-11 -31 -25 -67 -32 -80 -11 -21 -11 -22 4 -9 10
7 17 9 17 3 0 -9 -89 -72 -103 -72 -4 0 8 21 27 48 18 26 48 76 65 111 18 34
34 61 37 59 2 -3 -5 -30 -15 -60z m432 29 c7 11 36 11 54 0 6 -4 13 -3 15 3 2
5 9 6 17 1 8 -5 11 -16 8 -25 -5 -12 -21 -16 -67 -16 -46 0 -62 4 -67 16 -7
18 18 39 28 22 4 -6 9 -6 12 -1z m567 -16 c5 -11 10 -38 10 -61 0 -71 64 -112
116 -75 24 16 39 51 49 107 5 30 11 39 32 44 37 10 58 -7 61 -52 6 -64 -7
-104 -47 -147 l-38 -42 -7 -180 c-7 -202 -8 -205 -81 -205 -74 0 -80 11 -82
152 -2 68 -3 147 -3 176 0 46 -3 54 -24 62 -43 16 -70 68 -74 142 -3 45 0 73
8 83 18 22 67 19 80 -4z m-902 -334 c24 -44 41 -81 39 -83 -9 -9 -106 147
-117 187 -6 22 -8 55 -4 72 7 30 8 29 23 -33 9 -36 36 -100 59 -143z"/>
<path d="M277 1063 c-4 -3 -7 -33 -7 -65 0 -51 2 -58 20 -58 18 0 20 7 20 65
0 48 -4 65 -13 65 -8 0 -17 -3 -20 -7z"/>
<path d="M330 979 c0 -5 5 -7 10 -4 6 3 10 8 10 11 0 2 -4 4 -10 4 -5 0 -10
-5 -10 -11z"/>
<path d="M2287 1073 c-12 -11 -8 -241 4 -249 21 -13 29 21 29 123 0 120 -8
151 -33 126z"/>
<path d="M2335 980 c3 -5 8 -10 11 -10 2 0 4 5 4 10 0 6 -5 10 -11 10 -5 0 -7
-4 -4 -10z"/>
<path d="M418 973 c7 -3 16 -2 19 1 4 3 -2 6 -13 5 -11 0 -14 -3 -6 -6z"/>
</g>
</svg>
